<svg width="81" height="80" viewBox="0 0 81 80" fill="none" xmlns="http://www.w3.org/2000/svg">
<g clip-path="url(#clip0_8_135)">
<path d="M69.969 14.4978H53.2975C49.7198 14.4978 46.2223 15.546 43.213 17.5233L39.6572 19.8501L36.1014 17.5233C33.0951 15.5463 29.5937 14.4959 26.0169 14.4978H9.34547C8.05576 14.4978 7.01379 15.5608 7.01379 16.8766V59.1003C7.01379 60.416 8.05576 61.4791 9.34547 61.4791H26.0169C29.5946 61.4791 33.0921 62.5272 36.1014 64.5046L39.3366 66.6306C39.4313 66.6901 39.5406 66.7273 39.6499 66.7273C39.7592 66.7273 39.8685 66.6975 39.9632 66.6306L43.1984 64.5046C46.215 62.5272 49.7198 61.4791 53.2975 61.4791H69.969C71.2587 61.4791 72.3006 60.416 72.3006 59.1003V16.8766C72.3006 15.5608 71.2587 14.4978 69.969 14.4978ZM26.0169 56.1268H12.2601V19.8501H26.0169C28.5963 19.8501 31.1029 20.6009 33.267 22.0208L36.8228 24.3475L37.3255 24.682V59.0259C33.8572 57.1229 29.9808 56.1268 26.0169 56.1268ZM67.0544 56.1268H53.2975C49.3337 56.1268 45.4572 57.1229 41.9889 59.0259V24.682L42.4917 24.3475L46.0475 22.0208C48.2115 20.6009 50.7181 19.8501 53.2975 19.8501H67.0544V56.1268ZM31.2705 29.3653H17.7322C17.448 29.3653 17.2149 29.618 17.2149 29.9228V33.268C17.2149 33.5728 17.448 33.8255 17.7322 33.8255H31.2632C31.5474 33.8255 31.7805 33.5728 31.7805 33.268V29.9228C31.7878 29.618 31.5546 29.3653 31.2705 29.3653ZM47.5266 29.9228V33.268C47.5266 33.5728 47.7598 33.8255 48.0439 33.8255H61.5749C61.8591 33.8255 62.0923 33.5728 62.0923 33.268V29.9228C62.0923 29.618 61.8591 29.3653 61.5749 29.3653H48.0439C47.7598 29.3653 47.5266 29.618 47.5266 29.9228ZM31.2705 39.7725H17.7322C17.448 39.7725 17.2149 40.0253 17.2149 40.3301V43.6752C17.2149 43.98 17.448 44.2328 17.7322 44.2328H31.2632C31.5474 44.2328 31.7805 43.98 31.7805 43.6752V40.3301C31.7878 40.0253 31.5546 39.7725 31.2705 39.7725ZM61.5822 39.7725H48.0439C47.7598 39.7725 47.5266 40.0253 47.5266 40.3301V43.6752C47.5266 43.98 47.7598 44.2328 48.0439 44.2328H61.5749C61.8591 44.2328 62.0923 43.98 62.0923 43.6752V40.3301C62.0996 40.0253 61.8664 39.7725 61.5822 39.7725Z" fill="white"/>
</g>
<defs>
<clipPath id="clip0_8_135">
<rect width="80" height="80" fill="white" transform="translate(0.0297852)"/>
</clipPath>
</defs>
</svg>
