<svg width="81" height="80" viewBox="0 0 81 80" fill="none" xmlns="http://www.w3.org/2000/svg">
<g clip-path="url(#clip0_8_130)">
<path d="M40.3793 21.1757L36.9745 24.4923L50.2602 37.8423H21.3317V42.6042H50.2602L36.9745 55.8733L40.3793 59.2709L59.4269 40.2233L40.3793 21.1757Z" fill="white"/>
<path d="M40.3794 73.5567C33.7867 73.5567 27.342 71.6017 21.8604 67.939C16.3787 64.2763 12.1063 59.0703 9.58338 52.9795C7.06046 46.8886 6.40035 40.1864 7.68653 33.7204C8.9727 27.2543 12.1474 21.3149 16.8091 16.6531C21.4709 11.9914 27.4103 8.81669 33.8764 7.53052C40.3424 6.24435 47.0446 6.90446 53.1355 9.42738C59.2264 11.9503 64.4323 16.2227 68.095 21.7044C71.7577 27.186 73.7127 33.6307 73.7127 40.2234C73.7026 49.0608 70.1875 57.5334 63.9385 63.7824C57.6894 70.0315 49.2168 73.5466 40.3794 73.5567ZM40.3794 11.6519C34.7285 11.6519 29.2045 13.3276 24.5059 16.4671C19.8074 19.6066 16.1453 24.0688 13.9828 29.2896C11.8203 34.5103 11.2545 40.2551 12.3569 45.7974C13.4594 51.3397 16.1805 56.4306 20.1763 60.4264C24.1721 64.4222 29.263 67.1434 34.8054 68.2458C40.3477 69.3482 46.0924 68.7824 51.3132 66.6199C56.5339 64.4574 60.9962 60.7953 64.1356 56.0968C67.2751 51.3983 68.9508 45.8743 68.9508 40.2234C68.942 32.6485 65.9289 25.3863 60.5727 20.0301C55.2164 14.6738 47.9543 11.6608 40.3794 11.6519Z" fill="white"/>
</g>
<defs>
<clipPath id="clip0_8_130">
<rect width="80" height="80" fill="white" transform="translate(0.524658)"/>
</clipPath>
</defs>
</svg>
