<svg width="81" height="80" viewBox="0 0 81 80" fill="none" xmlns="http://www.w3.org/2000/svg">
<g clip-path="url(#clip0_8_140)">
<g clip-path="url(#clip1_8_140)">
<path d="M68.1923 13.1681H52.0118C46.4447 13.1681 41.6067 17.504 40.3914 23.6238C39.1646 17.504 34.3382 13.1681 28.771 13.1681H12.6021C9.53493 13.1681 7.04651 15.9676 7.04651 19.4181V51.4233C7.04651 54.8738 9.53493 57.6733 12.6021 57.6733H22.984C34.8127 57.6733 38.3428 60.8504 40.0326 67.4389C40.1136 67.8035 40.6345 67.8035 40.7271 67.4389C42.4285 60.8504 45.9585 57.6733 57.7757 57.6733H68.1576C71.2247 57.6733 73.7132 54.8738 73.7132 51.4233V19.4311C73.7132 15.9936 71.2479 13.1941 68.1923 13.1681ZM35.0558 47.7254C35.0558 47.9728 34.8822 48.1811 34.6507 48.1811H16.0974C15.8775 48.1811 15.6923 47.9858 15.6923 47.7254V44.7436C15.6923 44.4962 15.866 44.2879 16.0974 44.2879H34.6622C34.8822 44.2879 35.0673 44.4832 35.0673 44.7436V47.7254H35.0558ZM35.0558 39.7957C35.0558 40.0431 34.8822 40.2514 34.6507 40.2514H16.0974C15.8775 40.2514 15.6923 40.0561 15.6923 39.7957V36.8139C15.6923 36.5665 15.866 36.3582 16.0974 36.3582H34.6622C34.8822 36.3582 35.0673 36.5535 35.0673 36.8139V39.7957H35.0558ZM35.0558 31.866C35.0558 32.1134 34.8822 32.3217 34.6507 32.3217H16.0974C15.8775 32.3217 15.6923 32.1264 15.6923 31.866V28.8842C15.6923 28.6368 15.866 28.4285 16.0974 28.4285H34.6622C34.8822 28.4285 35.0673 28.6238 35.0673 28.8842V31.866H35.0558ZM65.0673 47.7124C65.0673 47.9598 64.8937 48.1681 64.6622 48.1681H46.109C45.8891 48.1681 45.7039 47.9728 45.7039 47.7124V44.7306C45.7039 44.4832 45.8775 44.2749 46.109 44.2749H64.6738C64.8937 44.2749 65.0789 44.4702 65.0789 44.7306V47.7124H65.0673ZM65.0673 39.7827C65.0673 40.0301 64.8937 40.2384 64.6622 40.2384H46.109C45.8891 40.2384 45.7039 40.0431 45.7039 39.7827V36.8009C45.7039 36.5535 45.8775 36.3452 46.109 36.3452H64.6738C64.8937 36.3452 65.0789 36.5405 65.0789 36.8009V39.7827H65.0673ZM65.0673 31.853C65.0673 32.1004 64.8937 32.3087 64.6622 32.3087H46.109C45.8891 32.3087 45.7039 32.1134 45.7039 31.853V28.8842C45.7039 28.6368 45.8775 28.4285 46.109 28.4285H64.6738C64.8937 28.4285 65.0789 28.6238 65.0789 28.8842V31.853H65.0673Z" fill="black"/>
</g>
</g>
<defs>
<clipPath id="clip0_8_140">
<rect width="80" height="80" fill="white" transform="translate(0.534912)"/>
</clipPath>
<clipPath id="clip1_8_140">
<rect width="66.6667" height="66.6667" fill="white" transform="translate(7.04651 7.1134)"/>
</clipPath>
</defs>
</svg>
