<svg width="80" height="80" viewBox="0 0 80 80" fill="none" xmlns="http://www.w3.org/2000/svg">
<path d="M73.3426 47.9502C73.1658 47.773 72.9441 47.6474 72.7013 47.5867C72.4584 47.526 72.2036 47.5325 71.9643 47.6056C66.4689 49.2664 60.6259 49.4053 55.0579 48.0076C49.4898 46.6099 44.4053 43.728 40.3461 39.6689C36.2868 35.6098 33.405 30.5256 32.0077 24.958C30.6103 19.3905 30.7497 13.5482 32.4111 8.05361C32.4849 7.81414 32.4919 7.5591 32.4316 7.31592C32.3712 7.07275 32.2456 6.85063 32.0684 6.67345C31.8913 6.49628 31.6691 6.37076 31.4259 6.31038C31.1827 6.25001 30.9276 6.25707 30.6881 6.33081C23.7002 8.47463 17.567 12.7684 13.1618 18.6006C8.18479 25.2359 5.76849 33.4435 6.35651 41.7167C6.94454 49.99 10.4974 57.7735 16.3629 63.6383C22.2284 69.5031 30.0128 73.0555 38.2869 73.6435C46.5611 74.2315 54.7697 71.8154 61.4057 66.839C67.2366 62.4324 71.5284 56.2987 73.67 49.3112C73.742 49.0758 73.7496 48.8254 73.692 48.5861C73.6344 48.3467 73.5138 48.1272 73.3426 47.9502ZM59.7585 64.651C53.6538 69.2447 46.0952 71.4795 38.4736 70.9442C30.852 70.4089 23.6801 67.1395 18.2776 61.7376C12.875 56.3356 9.60524 49.1646 9.06987 41.5439C8.5345 33.9231 10.7696 26.3654 15.3638 20.2614C18.9014 15.5839 23.6548 11.9667 29.1064 9.80397C27.8586 15.4606 28.0558 21.3403 29.6798 26.9006C31.3039 32.4609 34.3025 37.5226 38.3989 41.6185C42.4954 45.7145 47.5576 48.7128 53.1186 50.3366C58.6795 51.9605 64.5599 52.1577 70.2171 50.91C68.0541 56.3609 64.4366 61.1139 59.7585 64.651Z" fill="white"/>
</svg>
