<svg width="80" height="80" viewBox="0 0 80 80" fill="none" xmlns="http://www.w3.org/2000/svg">
<path d="M68.604 44.8045C69.2536 44.8045 69.8766 45.0626 70.3359 45.5219C70.7953 45.9812 71.0533 46.6042 71.0533 47.2538V67.8071C71.1478 70.6483 70.8049 72.5133 69.5348 73.6855C68.3521 74.7737 66.6376 75.0851 64.4157 74.9661H15.9997C13.7463 74.8541 11.9968 73.9409 11.185 72.0969C10.6462 70.8827 10.3943 69.4481 10.3943 67.8001V47.2503C10.3943 46.6007 10.6523 45.9777 11.1117 45.5184C11.571 45.0591 12.194 44.801 12.8436 44.801C13.4932 44.801 14.1162 45.0591 14.5755 45.5184C15.0348 45.9777 15.2929 46.6007 15.2929 47.2503V67.8001C15.2929 68.6119 15.3839 69.2697 15.5378 69.7666L15.6638 70.1095L15.6533 70.0745C15.6568 70.029 15.7583 70.0465 16.1152 70.0675H64.5417C65.3989 70.1165 65.9448 70.0675 66.1372 70.064L66.1512 70.0605C66.1057 69.875 66.1932 69.1157 66.1512 67.8841V47.2503C66.1512 46.9284 66.2147 46.6096 66.338 46.3122C66.4613 46.0148 66.642 45.7447 66.8698 45.5172C67.0976 45.2897 67.3681 45.1093 67.6656 44.9865C67.9632 44.8636 68.2821 44.8006 68.604 44.801V44.8045ZM41.5076 5.01013C42.4313 5.01013 43.2571 5.37403 44.0339 6.04934L74.213 34.5279C74.451 34.7478 74.6429 35.0128 74.7778 35.3074C74.9127 35.6021 74.9877 35.9206 74.9986 36.2445C75.0095 36.5683 74.956 36.8911 74.8413 37.1942C74.7265 37.4973 74.5528 37.7745 74.3301 38.0099C74.1074 38.2454 73.8402 38.4342 73.544 38.5657C73.2478 38.6971 72.9284 38.7684 72.6044 38.7755C72.2805 38.7826 71.9583 38.7254 71.6566 38.6071C71.3549 38.4888 71.0797 38.3118 70.8469 38.0864L41.3956 10.2902L9.05064 38.1599C8.5588 38.5844 7.91845 38.7962 7.27046 38.7487C6.62247 38.7011 6.01991 38.398 5.59535 37.9062C5.1708 37.4144 4.95901 36.774 5.00658 36.126C5.05416 35.478 5.35719 34.8755 5.84903 34.4509L38.9008 5.97936L39.2017 5.75542C39.9505 5.28655 40.6993 5.01363 41.5111 5.01363L41.5076 5.01013Z" fill="white"/>
</svg>
