<svg width="80" height="80" viewBox="0 0 80 80" fill="none" xmlns="http://www.w3.org/2000/svg">
<path d="M38.717 11.7736V4.0755C38.717 3.73522 38.8522 3.40888 39.0928 3.16827C39.3334 2.92766 39.6598 2.79248 40.0001 2.79248C40.3403 2.79248 40.6667 2.92766 40.9073 3.16827C41.1479 3.40888 41.2831 3.73522 41.2831 4.0755V11.7736C41.2831 12.1139 41.1479 12.4402 40.9073 12.6809C40.6667 12.9215 40.3403 13.0566 40.0001 13.0566C39.6598 13.0566 39.3334 12.9215 39.0928 12.6809C38.8522 12.4402 38.717 12.1139 38.717 11.7736ZM59.2454 40.0001C59.2454 43.8064 58.1166 47.5273 56.0019 50.6922C53.8872 53.8571 50.8815 56.3238 47.3649 57.7804C43.8483 59.237 39.9787 59.6182 36.2455 58.8756C32.5123 58.133 29.0831 56.3 26.3916 53.6085C23.7001 50.917 21.8671 47.4879 21.1246 43.7546C20.382 40.0214 20.7631 36.1518 22.2197 32.6352C23.6764 29.1186 26.1431 26.1129 29.3079 23.9982C32.4728 21.8835 36.1937 20.7548 40.0001 20.7548C45.1024 20.7607 49.9941 22.7902 53.602 26.3981C57.2099 30.006 59.2394 34.8977 59.2454 40.0001ZM56.6793 40.0001C56.6793 36.7012 55.7011 33.4765 53.8684 30.7336C52.0356 27.9907 49.4307 25.8528 46.3829 24.5904C43.3352 23.328 39.9816 22.9977 36.7461 23.6413C33.5106 24.2849 30.5387 25.8734 28.206 28.206C25.8734 30.5387 24.2849 33.5106 23.6413 36.7461C22.9977 39.9816 23.328 43.3352 24.5904 46.3829C25.8528 49.4307 27.9907 52.0356 30.7336 53.8684C33.4765 55.7011 36.7012 56.6793 40.0001 56.6793C44.4221 56.6742 48.6616 54.9153 51.7885 51.7885C54.9153 48.6616 56.6742 44.4221 56.6793 40.0001ZM18.564 20.3795C18.8048 20.6202 19.1313 20.7555 19.4717 20.7555C19.8122 20.7555 20.1387 20.6202 20.3795 20.3795C20.6202 20.1387 20.7555 19.8122 20.7555 19.4717C20.7555 19.1313 20.6202 18.8048 20.3795 18.564L15.2474 13.4319C15.0067 13.1912 14.6801 13.0559 14.3397 13.0559C13.9992 13.0559 13.6727 13.1912 13.4319 13.4319C13.1912 13.6727 13.0559 13.9992 13.0559 14.3397C13.0559 14.6801 13.1912 15.0067 13.4319 15.2474L18.564 20.3795ZM18.564 59.6206L13.4319 64.7527C13.3127 64.8719 13.2182 65.0134 13.1536 65.1692C13.0891 65.3249 13.0559 65.4919 13.0559 65.6605C13.0559 65.829 13.0891 65.996 13.1536 66.1517C13.2182 66.3075 13.3127 66.449 13.4319 66.5682C13.5511 66.6874 13.6926 66.782 13.8484 66.8465C14.0041 66.911 14.1711 66.9442 14.3397 66.9442C14.5082 66.9442 14.6752 66.911 14.8309 66.8465C14.9867 66.782 15.1282 66.6874 15.2474 66.5682L20.3795 61.4361C20.6202 61.1954 20.7555 60.8688 20.7555 60.5284C20.7555 60.1879 20.6202 59.8614 20.3795 59.6206C20.1387 59.3799 19.8122 59.2446 19.4717 59.2446C19.1313 59.2446 18.8048 59.3799 18.564 59.6206ZM60.5284 20.7548C60.6969 20.7549 60.8638 20.7218 61.0196 20.6574C61.1753 20.593 61.3169 20.4986 61.4361 20.3795L66.5682 15.2474C66.6874 15.1282 66.782 14.9867 66.8465 14.8309C66.911 14.6752 66.9442 14.5082 66.9442 14.3397C66.9442 14.1711 66.911 14.0041 66.8465 13.8484C66.782 13.6926 66.6874 13.5511 66.5682 13.4319C66.449 13.3127 66.3075 13.2182 66.1517 13.1536C65.996 13.0891 65.829 13.0559 65.6605 13.0559C65.4919 13.0559 65.3249 13.0891 65.1692 13.1536C65.0134 13.2182 64.8719 13.3127 64.7527 13.4319L59.6206 18.564C59.441 18.7434 59.3186 18.9721 59.2691 19.2212C59.2195 19.4702 59.2449 19.7283 59.3421 19.9629C59.4393 20.1974 59.6039 20.3979 59.815 20.5389C60.0262 20.6798 60.2745 20.755 60.5284 20.7548ZM61.4361 59.6206C61.1954 59.3799 60.8688 59.2446 60.5284 59.2446C60.1879 59.2446 59.8614 59.3799 59.6206 59.6206C59.3799 59.8614 59.2446 60.1879 59.2446 60.5284C59.2446 60.8688 59.3799 61.1954 59.6206 61.4361L64.7527 66.5682C64.8719 66.6874 65.0134 66.782 65.1692 66.8465C65.3249 66.911 65.4919 66.9442 65.6605 66.9442C65.829 66.9442 65.996 66.911 66.1517 66.8465C66.3075 66.782 66.449 66.6874 66.5682 66.5682C66.6874 66.449 66.782 66.3075 66.8465 66.1517C66.911 65.996 66.9442 65.829 66.9442 65.6605C66.9442 65.4919 66.911 65.3249 66.8465 65.1692C66.782 65.0134 66.6874 64.8719 66.5682 64.7527L61.4361 59.6206ZM11.7736 38.717H4.0755C3.73522 38.717 3.40888 38.8522 3.16827 39.0928C2.92766 39.3334 2.79248 39.6598 2.79248 40.0001C2.79248 40.3403 2.92766 40.6667 3.16827 40.9073C3.40888 41.1479 3.73522 41.2831 4.0755 41.2831H11.7736C12.1139 41.2831 12.4402 41.1479 12.6809 40.9073C12.9215 40.6667 13.0566 40.3403 13.0566 40.0001C13.0566 39.6598 12.9215 39.3334 12.6809 39.0928C12.4402 38.8522 12.1139 38.717 11.7736 38.717ZM40.0001 66.9435C39.6598 66.9435 39.3334 67.0787 39.0928 67.3193C38.8522 67.5599 38.717 67.8862 38.717 68.2265V75.9246C38.717 76.2649 38.8522 76.5912 39.0928 76.8319C39.3334 77.0725 39.6598 77.2076 40.0001 77.2076C40.3403 77.2076 40.6667 77.0725 40.9073 76.8319C41.1479 76.5912 41.2831 76.2649 41.2831 75.9246V68.2265C41.2831 67.8862 41.1479 67.5599 40.9073 67.3193C40.6667 67.0787 40.3403 66.9435 40.0001 66.9435ZM75.9246 38.717H68.2265C67.8862 38.717 67.5599 38.8522 67.3193 39.0928C67.0787 39.3334 66.9435 39.6598 66.9435 40.0001C66.9435 40.3403 67.0787 40.6667 67.3193 40.9073C67.5599 41.1479 67.8862 41.2831 68.2265 41.2831H75.9246C76.2649 41.2831 76.5912 41.1479 76.8319 40.9073C77.0725 40.6667 77.2076 40.3403 77.2076 40.0001C77.2076 39.6598 77.0725 39.3334 76.8319 39.0928C76.5912 38.8522 76.2649 38.717 75.9246 38.717Z" fill="white"/>
</svg>
