<svg width="70" height="70" viewBox="0 0 70 70" fill="none" xmlns="http://www.w3.org/2000/svg">
<path d="M35 26.32C33.2833 26.32 31.6051 26.8291 30.1777 27.7828C28.7502 28.7366 27.6377 30.0922 26.9807 31.6783C26.3238 33.2644 26.1519 35.0096 26.4868 36.6934C26.8217 38.3771 27.6484 39.9238 28.8623 41.1377C30.0762 42.3516 31.6229 43.1783 33.3066 43.5132C34.9904 43.8481 36.7356 43.6762 38.3217 43.0193C39.9078 42.3623 41.2634 41.2498 42.2172 39.8223C43.1709 38.3949 43.68 36.7167 43.68 35C43.68 33.8601 43.4555 32.7314 43.0193 31.6783C42.5831 30.6252 41.9437 29.6683 41.1377 28.8623C40.3317 28.0563 39.3748 27.4169 38.3217 26.9807C37.2686 26.5445 36.1399 26.32 35 26.32ZM69.755 17.745C69.7366 15.0422 69.2389 12.364 68.285 9.835C67.5825 7.98441 66.4955 6.30383 65.0958 4.90415C63.6962 3.50447 62.0156 2.41751 60.165 1.715C57.636 0.761123 54.9578 0.263413 52.255 0.245C47.74 -2.34693e-07 46.41 0 35 0C23.59 0 22.26 -2.34693e-07 17.745 0.245C15.0422 0.263413 12.364 0.761123 9.835 1.715C7.98441 2.41751 6.30383 3.50447 4.90415 4.90415C3.50447 6.30383 2.41751 7.98441 1.715 9.835C0.761123 12.364 0.263413 15.0422 0.245 17.745C-2.34693e-07 22.26 0 23.59 0 35C0 46.41 -2.34693e-07 47.74 0.245 52.255C0.282674 54.9674 0.77971 57.6537 1.715 60.2C2.4144 62.0421 3.50045 63.713 4.9 65.1C6.29368 66.5081 7.97786 67.595 9.835 68.285C12.364 69.2389 15.0422 69.7366 17.745 69.755C22.26 70 23.59 70 35 70C46.41 70 47.74 70 52.255 69.755C54.9578 69.7366 57.636 69.2389 60.165 68.285C62.0221 67.595 63.7063 66.5081 65.1 65.1C66.4995 63.713 67.5856 62.0421 68.285 60.2C69.238 57.6586 69.7356 54.9691 69.755 52.255C70 47.74 70 46.41 70 35C70 23.59 70 22.26 69.755 17.745ZM60.865 45.745C60.7527 47.9049 60.2917 50.0323 59.5 52.045C58.8205 53.7239 57.8104 55.249 56.5297 56.5297C55.249 57.8104 53.7239 58.8205 52.045 59.5C50.0133 60.2476 47.8739 60.6613 45.71 60.725H24.29C22.1261 60.6613 19.9867 60.2476 17.955 59.5C16.2194 58.855 14.652 57.826 13.37 56.49C12.1018 55.2344 11.1225 53.7175 10.5 52.045C9.74945 50.0154 9.34712 47.8736 9.31 45.71V24.29C9.34712 22.1264 9.74945 19.9846 10.5 17.955C11.145 16.2194 12.174 14.652 13.51 13.37C14.7712 12.1087 16.2864 11.1303 17.955 10.5C19.9867 9.75242 22.1261 9.33873 24.29 9.275H45.71C47.8739 9.33873 50.0133 9.75242 52.045 10.5C53.7806 11.145 55.348 12.174 56.63 13.51C57.8982 14.7656 58.8775 16.2825 59.5 17.955C60.2476 19.9867 60.6613 22.1261 60.725 24.29V35C60.725 42.21 60.97 42.945 60.865 45.71V45.745ZM55.265 19.705C54.8483 18.5744 54.1913 17.5477 53.3393 16.6957C52.4873 15.8437 51.4606 15.1867 50.33 14.77C48.7776 14.2319 47.1427 13.9713 45.5 14H24.5C22.8489 14.0161 21.2137 14.3242 19.67 14.91C18.5568 15.3078 17.5409 15.938 16.69 16.7587C15.8392 17.5794 15.1727 18.5718 14.735 19.67C14.2267 21.2288 13.9784 22.8606 14 24.5V45.5C14.0347 47.1492 14.3422 48.7812 14.91 50.33C15.3267 51.4606 15.9837 52.4873 16.8357 53.3393C17.6877 54.1913 18.7144 54.8483 19.845 55.265C21.3383 55.8142 22.9098 56.1214 24.5 56.175H45.5C47.1511 56.1589 48.7863 55.8508 50.33 55.265C51.4606 54.8483 52.4873 54.1913 53.3393 53.3393C54.1913 52.4873 54.8483 51.4606 55.265 50.33C55.8508 48.7863 56.1589 47.1511 56.175 45.5V24.5C56.176 22.8473 55.8674 21.209 55.265 19.67V19.705ZM35 48.37C33.2459 48.37 31.509 48.0239 29.8888 47.3516C28.2687 46.6793 26.7971 45.6939 25.5583 44.4519C24.3196 43.2099 23.3381 41.7358 22.67 40.1138C22.0019 38.4919 21.6604 36.7541 21.665 35C21.665 32.3542 22.45 29.7678 23.9207 27.5684C25.3914 25.369 27.4816 23.6553 29.9266 22.6444C32.3717 21.6335 35.0618 21.3708 37.6563 21.8895C40.2507 22.4082 42.633 23.6851 44.5014 25.5584C46.3698 27.4318 47.6404 29.8173 48.1524 32.4132C48.6643 35.009 48.3945 37.6983 47.3772 40.1408C46.3599 42.5832 44.6408 44.6689 42.4375 46.1338C40.2342 47.5987 37.6458 48.3769 35 48.37ZM49 24.255C48.2263 24.1731 47.5103 23.8078 46.9899 23.2294C46.4695 22.651 46.1816 21.9005 46.1816 21.1225C46.1816 20.3445 46.4695 19.594 46.9899 19.0156C47.5103 18.4372 48.2263 18.0719 49 17.99C49.7737 18.0719 50.4897 18.4372 51.0101 19.0156C51.5305 19.594 51.8184 20.3445 51.8184 21.1225C51.8184 21.9005 51.5305 22.651 51.0101 23.2294C50.4897 23.8078 49.7737 24.1731 49 24.255Z" fill="white"/>
</svg>
