<svg width="70" height="70" viewBox="0 0 70 70" fill="none" xmlns="http://www.w3.org/2000/svg">
<path d="M24.64 68.39C28 69.405 31.395 70 35 70C44.2826 70 53.185 66.3125 59.7487 59.7487C66.3125 53.185 70 44.2826 70 35C70 30.4037 69.0947 25.8525 67.3358 21.6061C65.5769 17.3597 62.9988 13.5013 59.7487 10.2513C56.4987 7.00121 52.6403 4.42313 48.3939 2.66422C44.1475 0.905302 39.5963 0 35 0C30.4037 0 25.8525 0.905302 21.6061 2.66422C17.3597 4.42313 13.5013 7.00121 10.2513 10.2513C3.68749 16.815 0 25.7174 0 35C0 49.875 9.345 62.65 22.54 67.69C22.225 64.96 21.91 60.445 22.54 57.33L26.565 40.04C26.565 40.04 25.55 38.01 25.55 34.79C25.55 29.96 28.56 26.355 31.99 26.355C35 26.355 36.4 28.56 36.4 31.395C36.4 34.405 34.405 38.71 33.39 42.84C32.795 46.27 35.21 49.28 38.71 49.28C44.94 49.28 49.77 42.63 49.77 33.25C49.77 24.85 43.75 19.11 35.105 19.11C25.235 19.11 19.425 26.46 19.425 34.195C19.425 37.205 20.405 40.25 22.015 42.245C22.33 42.455 22.33 42.735 22.225 43.26L21.21 47.075C21.21 47.67 20.825 47.88 20.23 47.46C15.75 45.5 13.16 39.13 13.16 33.985C13.16 22.925 21 12.88 36.12 12.88C48.16 12.88 57.54 21.525 57.54 33.005C57.54 45.045 50.085 54.705 39.41 54.705C36.015 54.705 32.69 52.885 31.5 50.75L29.155 59.045C28.35 62.055 26.145 66.08 24.64 68.495V68.39Z" fill="white"/>
</svg>
