<svg width="80" height="80" viewBox="0 0 80 80" fill="none" xmlns="http://www.w3.org/2000/svg">
<path d="M29.2458 59.9701H50.7522M29.2458 59.9701V70.7233H50.7522V59.9701M29.2458 59.9701C29.2458 59.9701 24.6373 49.2169 23.1011 35.3913C21.5649 21.5658 21.5649 9.27637 21.5649 9.27637H58.4331C58.4331 9.27637 58.4331 21.5658 56.8969 35.3913C55.3608 49.2169 50.7522 59.9701 50.7522 59.9701" stroke="white" stroke-width="2.94945" stroke-linecap="round" stroke-linejoin="round"/>
<path d="M23.1011 18.4934H56.8969M34.842 36.757C37.0403 33.869 38.7362 29.8765 39.6518 27.7104C41.2556 29.8765 44.7365 35.3114 45.8364 38.201C47.2098 41.811 43.7749 46.1445 39.6518 46.1445C35.5287 46.1445 32.0938 40.3685 34.842 36.757Z" stroke="white" stroke-width="2.94945" stroke-linecap="round" stroke-linejoin="round"/>
</svg>
