<svg width="81" height="80" viewBox="0 0 81 80" fill="none" xmlns="http://www.w3.org/2000/svg">
<path d="M56.7839 30.2321H24.2241V72.5598H56.7839V30.2321Z" stroke="white" stroke-width="3.25598" stroke-linejoin="round"/>
<path d="M34.9336 18.8362H46.0745C47.2172 18.8361 48.3307 19.2688 49.2564 20.0727C50.1821 20.8766 50.8727 22.0106 51.2298 23.3132L53.1251 30.2321H27.8804L29.7797 23.3132C30.1368 22.0106 30.8274 20.8766 31.7531 20.0727C32.6788 19.2688 33.7923 18.8361 34.935 18.8362H34.9336Z" stroke="white" stroke-width="3.25598" stroke-linecap="round" stroke-linejoin="round"/>
<path d="M36.4339 18.8361V12.3242C36.4339 11.0288 36.8627 9.78659 37.626 8.87067C38.3892 7.95475 39.4244 7.44019 40.5039 7.44019C41.5833 7.44019 42.6185 7.95475 43.3818 8.87067C44.145 9.78659 44.5738 11.0288 44.5738 12.3242V18.8361M33.0422 43.256V59.5359" stroke="white" stroke-width="3.25598" stroke-linecap="round"/>
</svg>
