<svg width="81" height="80" viewBox="0 0 81 80" fill="none" xmlns="http://www.w3.org/2000/svg">
<g clip-path="url(#clip0_8_125)">
<path d="M54.3385 28.9261L69.5836 34.7019C70.2313 34.947 70.7866 35.3706 71.1777 35.9178C71.5687 36.465 71.7776 37.1107 71.7774 37.7715V68.5767C71.7774 69.453 71.4099 70.2935 70.7558 70.9131C70.1017 71.5328 69.2146 71.8809 68.2896 71.8809H12.4851C11.5601 71.8809 10.6729 71.5328 10.0189 70.9131C9.36478 70.2935 8.99731 69.453 8.99731 68.5767V37.7715C8.99706 37.1107 9.20596 36.465 9.59703 35.9178C9.9881 35.3706 10.5434 34.947 11.1911 34.7019L26.4362 28.9261H54.3385ZM68.2896 45.4472H26.4362V61.9683H68.2896V45.4472ZM54.3385 9.10083C55.2635 9.10083 56.1506 9.44895 56.8047 10.0686C57.4588 10.6883 57.8263 11.5287 57.8263 12.405V25.6219H22.9484V12.405C22.9484 11.5287 23.3159 10.6883 23.97 10.0686C24.6241 9.44895 25.5112 9.10083 26.4362 9.10083H54.3385Z" fill="white"/>
</g>
<defs>
<clipPath id="clip0_8_125">
<rect width="80" height="80" fill="white" transform="translate(0.0195312)"/>
</clipPath>
</defs>
</svg>
